#!OML:ASF X:\für Bonn\!DataBase\2005_08_11_Bastian_Final\c3d\Bastian.ASF
:FULLY-SPECIFIED
:DEGREES
62
root 1.61544 7.83872 0.957381 170.93 -1.03421 -172.811
lowerback 36.1758 -1.08944 4.76848
upperback 3.58295 -0.774105 2.25563
thorax -14.1303 -1.21379 0.437625
lowerneck -16.2943 -8.26494 -5.4626
upperneck -9.03156 -8.38454 12.0434
head 0.683968 -3.17344 4.07799
rclavicle 7.65321e-015 -3.07122e-014
rhumerus 77.8414 -4.36681 -8.01468
rradius 41.3653
rwrist -52.4559
rhand -41.0196 -2.79916
rfingers 7.12502
rthumb -13.9505 -32.3111
lclavicle 7.65321e-015 -3.07122e-014
lhumerus 57.2928 5.30646 5.83541
lradius 42.1863
lwrist -0.57047
lhand -45.0659 6.45221
lfingers 7.12502
lthumb -17.847 35.6533
rfemur -70.9137 -16.1171 37.857
rtibia 144.88
rfoot -51.3776 -13.7731
rtoes 0.387577
lfemur -73.6137 56.6288 -9.53733
ltibia 149.236
lfoot -45.2397 -32.7112
ltoes 11.5951
63
root 1.59993 7.68987 0.959639 170.671 -0.778177 -172.867
lowerback 36.7898 -0.998229 4.70554
upperback 3.6426 -0.707878 2.23584
thorax -14.2942 -1.20709 0.440139
lowerneck -16.323 -8.28001 -5.44634
upperneck -9.27055 -8.34688 12.1658
head 0.621186 -3.14078 4.1192
rclavicle -4.82053e-015 3.57812e-015
rhumerus 77.8618 -4.6179 -7.22009
rradius 41.4205
rwrist -53.2456
rhand -41.2579 -3.00549
rfingers 7.12502
rthumb -14.1802 -32.5015
lclavicle -4.82053e-015 3.57812e-015
lhumerus 57.3136 5.38831 5.07305
lradius 41.7224
lwrist 0.244239
lhand -44.9924 7.09779
lfingers 7.12502
lthumb -17.7763 36.3053
rfemur -71.574 -17.3317 37.9314
rtibia 146.063
rfoot -51.5601 -13.1685
rtoes 1.22594
lfemur -74.4384 59.3643 -9.66215
ltibia 150.447
lfoot -45.0028 -33.5616
ltoes 13.6603
64
root 1.58391 7.53801 0.961141 170.386 -0.536133 -172.919
lowerback 37.3522 -0.911531 4.67702
upperback 3.71832 -0.643459 2.19271
thorax -14.4158 -1.20346 0.397299
lowerneck -16.3121 -8.30423 -5.41201
upperneck -9.51177 -8.32698 12.3012
head 0.553473 -3.11949 4.16108
rclavicle 6.55989e-015 -2.80286e-014
rhumerus 77.773 -4.83384 -6.47969
rradius 41.5777
rwrist -54.037
rhand -41.5013 -3.18927
rfingers 7.12502
rthumb -14.4147 -32.6687
lclavicle 6.55989e-015 -2.80286e-014
lhumerus 57.3734 5.39415 4.23319
lradius 41.3491
lwrist 1.26995
lhand -44.9748 7.8211
lfingers 7.12502
lthumb -17.7594 37.0301
rfemur -72.2169 -18.6586 38.0258
rtibia 147.251
rfoot -51.7646 -12.6274
rtoes 1.96963
lfemur -75.3618 62.1359 -9.88029
ltibia 151.668
lfoot -44.7391 -34.273
ltoes 15.6753
65
root 1.56797 7.38977 0.962459 170.112 -0.302133 -172.951
lowerback 37.8298 -0.829909 4.63703
upperback 3.81683 -0.596899 2.17353
thorax -14.4764 -1.20714 0.391619
lowerneck -16.303 -8.30785 -5.34443
upperneck -9.75108 -8.28701 12.3708
head 0.479281 -3.09139 4.17914
rclavicle -2.59414e-014 -1.39149e-015
rhumerus 77.7186 -5.00057 -5.89697
rradius 41.7633
rwrist -54.8207
rhand -41.6885 -3.26327
rfingers 7.12502
rthumb -14.595 -32.7297
lclavicle -2.59414e-014 -1.39149e-015
lhumerus 57.379 5.43411 3.58337
lradius 41.0252
lwrist 2.35016
lhand -44.8628 8.34818
lfingers 7.12502
lthumb -17.6516 37.5669
rfemur -72.8695 -19.9202 38.1715
rtibia 148.39
rfoot -51.9379 -12.2152
rtoes 2.48554
lfemur -76.481 64.8579 -10.3391
ltibia 152.88
lfoot -44.7368 -34.5127
ltoes 16.6466
66
root 1.55294 7.24766 0.963105 169.875 -0.0989944 -173.003
lowerback 38.2032 -0.747415 4.57947
upperback 3.92597 -0.560023 2.15464
thorax -14.4843 -1.21185 0.396157
lowerneck -16.241 -8.31644 -5.34314
upperneck -10.0137 -8.24287 12.4855
head 0.395958 -3.06135 4.22334
rclavicle -4.52235e-015 -1.43125e-014
rhumerus 77.6581 -5.10132 -5.5077
rradius 41.9534
rwrist -55.4675
rhand -41.7879 -3.30322
rfingers 7.12502
rthumb -14.6908 -32.7627
lclavicle -4.52235e-015 -1.43125e-014
lhumerus 57.4073 5.45838 3.07211
lradius 40.7433
lwrist 3.54527
lhand -44.7615 8.67075
lfingers 7.12502
lthumb -17.5542 37.8982
rfemur -73.5551 -21.2296 38.3462
rtibia 149.494
rfoot -52.1155 -11.8781
rtoes 3.06671
lfemur -77.8092 67.4158 -11.1337
ltibia 154.031
lfoot -44.8732 -34.4779
ltoes 17.2234
67
root 1.53766 7.11803 0.963675 169.69 0.091542 -173.041
lowerback 38.5021 -0.677312 4.53051
upperback 4.01818 -0.530797 2.13247
thorax -14.484 -1.21664 0.393601
lowerneck -16.1182 -8.31133 -5.30388
upperneck -10.3135 -8.18541 12.5737
head 0.288295 -3.0297 4.2564
rclavicle -1.1778e-014 2.24627e-014
rhumerus 77.6461 -5.10854 -5.39964
rradius 42.0868
rwrist -55.9365
rhand -41.766 -3.27795
rfingers 7.12502
rthumb -14.6697 -32.739
lclavicle -1.1778e-014 2.24627e-014
lhumerus 57.4348 5.45663 2.65524
lradius 40.5003
lwrist 4.86124
lhand -44.6609 8.80847
lfingers 7.12502
lthumb -17.4574 38.0446
rfemur -74.2111 -22.3895 38.549
rtibia 150.496
rfoot -52.2991 -11.7019
rtoes 3.30806
lfemur -79.3482 69.6386 -12.2468
ltibia 155.08
lfoot -45.0513 -34.2112
ltoes 17.7175
